<svg xmlns="http://www.w3.org/2000/svg" xmlns:xlink="http://www.w3.org/1999/xlink" viewBox="0 0 176.61 82.01"><defs><style>.cls-1{fill:none;}.cls-2{clip-path:url(#clip-path);}.cls-3{fill:#fefefe;}.cls-4{fill:#fb6c02;}.cls-5{fill:#0b0b0b;}</style><clipPath id="clip-path"><rect class="cls-1" x="0.01" width="116.59" height="82"/></clipPath></defs><title>Logo_1</title><g id="Camada_2" data-name="Camada 2"><g id="Camada_2-2" data-name="Camada 2"><g class="cls-2"><path class="cls-3" d="M82.65,26.12a.5.5,0,0,1,.17,0l1.1.08v-.15H81.37v.15l1.1-.08A.65.65,0,0,0,82.65,26.12Z"/><path class="cls-4" d="M100.59,46.41h3.24c-.56-9.9-8.18-19-18.51-20.06l-1.43-.13V29.4H81.35V26.22c-.49,0-1,.08-1.43.13C69.6,27.43,62,36.54,61.41,46.44h3.24V49H61.41a19.79,19.79,0,0,0,1.3,5.84A21.67,21.67,0,0,0,74.26,67.07l.43.15a21.74,21.74,0,0,0,6.63,1.46v-3.1h2.55v3.1a22.8,22.8,0,0,0,6.63-1.46l.43-.15a21.61,21.61,0,0,0,11.55-12.22,19.91,19.91,0,0,0,1.3-5.87h-3.22Zm-5.07,4.34H86v9.62a3.32,3.32,0,1,1-6.63,0V50.75H69.77a3.34,3.34,0,0,1,0-6.67h9.56V34.46a3.32,3.32,0,1,1,6.63,0v9.62h9.56a3.34,3.34,0,0,1,0,6.67Z"/><path class="cls-4" d="M106.47,23.12a33,33,0,0,0-19.37-9.7c-.76-.1-1-.39-1-1.13,0-1.21,0-2.39,0-3.59,0-.85.28-1.08,1.07-1.13A3.75,3.75,0,0,0,91,3.62,3.75,3.75,0,0,0,87,0c-3.11,0-6.22,0-9.31,0a4.12,4.12,0,0,0-2.06.51A3.86,3.86,0,0,0,73.82,4.7a3.55,3.55,0,0,0,3.47,2.84c1,0,1.32.36,1.25,1.34a28.46,28.46,0,0,0,0,3.33c0,.8-.21,1.13-1,1.23A36.27,36.27,0,0,0,68.37,16a63.33,63.33,0,0,1-22.05,4.74c-4.21.13-8.41,0-12.62,0a3.81,3.81,0,0,0-3.85,2.57,3.69,3.69,0,0,0,1.48,4.36,2.78,2.78,0,0,0,2.45.77c4.53,0,9.07,0,13.61,0A4.1,4.1,0,0,1,51,30.1c.15.35.3.71.46,1.07a5,5,0,0,1-.26,2.93c-.07.1-.15.18-.23.28l-1.5,1.28,0,0a14.74,14.74,0,0,1-2.55.51l-2.37-.1q-19.15,0-38.33,0c-.82,0-1.61,0-2.42.07A3.94,3.94,0,0,0,0,39.77c-.1,2.31,1.61,3.95,4.18,3.95H38.06a9.91,9.91,0,0,1,1.89.15,3.55,3.55,0,0,1,2.85,3.47,3.72,3.72,0,0,1-4,4c-4.76,0-9.5,0-14.27,0a3.77,3.77,0,0,0-3.7,4.9,3.82,3.82,0,0,0,4,2.72c7,0,14,0,21,0a4.24,4.24,0,0,1,2.78.71A3.81,3.81,0,0,1,50,64a3.56,3.56,0,0,1-3.49,2.51c-3.44.06-6.89,0-10.33,0a3.9,3.9,0,0,0-4.05,3.87c0,2.21,1.68,3.75,4.13,3.78,3.06,0,6.12-.06,9.18,0A57.27,57.27,0,0,1,68.09,79a34.4,34.4,0,0,0,17,3,17.31,17.31,0,0,0,6.11-1.05c.9-.29,1.81-.49,2.68-.83,12.8-5.2,20.57-14.57,22.38-28.42C117.69,40.59,114.22,31,106.47,23.12ZM83.41,75.48H81.88A27.83,27.83,0,0,1,54.81,47.8a25.91,25.91,0,0,1,3.11-13.24c5.27-9.67,13.45-14.73,24.44-15.11h.51c11,.36,19.17,5.44,24.44,15.11a25.91,25.91,0,0,1,3.11,13.24A27.77,27.77,0,0,1,83.41,75.48Z"/><path class="cls-4" d="M17.39,28c1.46.07,2.91.07,4.36,0a3.28,3.28,0,0,0-.07-6.55c-.69,0-1.38,0-2.07,0s-1.45,0-2.19,0a3.28,3.28,0,0,0,0,6.55Z"/><path class="cls-3" d="M81.37,68.68v.24h2.55v-.24c-.43,0-.84.06-1.27.06S81.78,68.71,81.37,68.68Z"/><path class="cls-3" d="M61.41,46.41h-.07V49h.07C61.39,48.13,61.36,47.26,61.41,46.41Z"/><path class="cls-4" d="M13.49,51.31a3.76,3.76,0,0,0-3.82,3.8,3.66,3.66,0,0,0,3.8,3.77,3.79,3.79,0,0,0,0-7.57Z"/></g><path class="cls-5" d="M115.73,55.5a3.67,3.67,0,0,1-.91,2.73,2.86,2.86,0,0,1-2,.88h-7.1a1.65,1.65,0,0,0,1,1.42,4.11,4.11,0,0,0,2,.57,8.35,8.35,0,0,0,2.73-.37l.34-.14a2.8,2.8,0,0,1,1.21-.33c.64,0,1.18.44,1.65,1.35A3.24,3.24,0,0,1,115,63c0,1.79-2.12,2.66-6.36,2.66a9.75,9.75,0,0,1-3.94-.77,6.67,6.67,0,0,1-2.7-2,8.73,8.73,0,0,1-1.88-5.43,7.85,7.85,0,0,1,2.42-6,8.58,8.58,0,0,1,6.1-2.26c2.76,0,4.81,1,6.09,2.93A6.35,6.35,0,0,1,115.73,55.5Zm-6.33.88c.78,0,1.15-.31,1.15-1a1.29,1.29,0,0,0-.54-1.11,2.35,2.35,0,0,0-1.48-.4,3,3,0,0,0-1.92.81,2.21,2.21,0,0,0-1,1.68h3.74Z"/><path class="cls-5" d="M122.84,51.59a4,4,0,0,1,3.36-2.13,4.93,4.93,0,0,1,4.55,2.6,8,8,0,0,1,.81-.94A6.51,6.51,0,0,1,133,50a3.94,3.94,0,0,1,2.09-.58,5.06,5.06,0,0,1,4,1.86c1.08,1.21,1.62,3.27,1.62,6.1v5.27a9.49,9.49,0,0,1,0,1,3.65,3.65,0,0,1-.27.81c-.27.54-1,.81-2.29.81s-2-.27-2.29-.84a3.06,3.06,0,0,1-.27-.81,7.36,7.36,0,0,1,0-1.05V57.39c0-1.75-.6-2.6-1.85-2.6a1.45,1.45,0,0,0-1.41.68,4.3,4.3,0,0,0-.37,2v5.27a6.91,6.91,0,0,1,0,1,2.79,2.79,0,0,1-.27.78c-.26.54-1,.81-2.32.81s-2-.27-2.29-.85a3.65,3.65,0,0,1-.27-.81,9.49,9.49,0,0,1,0-1V57.39c0-1.75-.61-2.6-1.85-2.6s-1.79.88-1.79,2.6v5.3a9.49,9.49,0,0,1,0,1,3.65,3.65,0,0,1-.27.81c-.3.51-1.08.78-2.32.78s-2-.27-2.29-.81a3.3,3.3,0,0,1-.27-.78,7.13,7.13,0,0,1,0-1V52.09a7.13,7.13,0,0,1,0-1,2.79,2.79,0,0,1,.27-.78c.3-.54,1-.81,2.12-.81a3.08,3.08,0,0,1,2.19.54A3.36,3.36,0,0,1,122.84,51.59Z"/><path class="cls-5" d="M143.14,69.6V52.06a8.61,8.61,0,0,1,0-1,1.86,1.86,0,0,1,.27-.74c.27-.54.95-.81,2-.81a4,4,0,0,1,2.16.4,1.68,1.68,0,0,1,.64,1.18,4.13,4.13,0,0,1,3.57-1.55,6.44,6.44,0,0,1,4.61,2.29,7.7,7.7,0,0,1,0,10.73,6.27,6.27,0,0,1-4.61,2.3,4.34,4.34,0,0,1-3.57-1.39v6.07a8.8,8.8,0,0,1,0,1,3.58,3.58,0,0,1-.27.77,1.12,1.12,0,0,1-.78.61,4.58,4.58,0,0,1-1.48.17,5.61,5.61,0,0,1-1.48-.17,1.19,1.19,0,0,1-.77-.61,2.6,2.6,0,0,1-.27-.74A5.47,5.47,0,0,1,143.14,69.6Zm6-14.13a2.59,2.59,0,0,0,0,3.51,2.29,2.29,0,0,0,1.79.81,2.65,2.65,0,0,0,2.62-2.53,2.61,2.61,0,0,0-.7-1.79,2.39,2.39,0,0,0-1.89-.81A2.23,2.23,0,0,0,149.1,55.47Z"/><path class="cls-5" d="M162.64,51.45a8.24,8.24,0,0,1,5.75-2.32,8.13,8.13,0,0,1,5.73,2.32,7.79,7.79,0,0,1,2.49,5.94,7.93,7.93,0,0,1-1.28,4.42,7.82,7.82,0,0,1-3.13,2.83,8.25,8.25,0,0,1-7.65-.06,8.57,8.57,0,0,1-3.13-2.87,7.67,7.67,0,0,1-1.28-4.32A7.9,7.9,0,0,1,162.64,51.45Zm3.77,8.1a3.06,3.06,0,0,0,2,.74,3.24,3.24,0,0,0,2-.74,2.6,2.6,0,0,0,1-2.23,2.54,2.54,0,0,0-.94-2.19,3.18,3.18,0,0,0-4,0,2.73,2.73,0,0,0-.94,2.2A2.67,2.67,0,0,0,166.41,59.55Z"/></g></g></svg>